<svg xmlns="http://www.w3.org/2000/svg" xmlns:xlink="http://www.w3.org/1999/xlink" width="512" zoomAndPan="magnify" viewBox="0 0 384 383.999986" height="512" preserveAspectRatio="xMidYMid meet" version="1.0"><defs><clipPath id="e92cb147ef"><path d="M 5 4.933594 L 380 4.933594 L 380 379.183594 L 5 379.183594 Z M 5 4.933594 " clip-rule="nonzero"/></clipPath><clipPath id="e905f4139a"><path d="M 100.382812 60.929688 L 292.382812 60.929688 L 292.382812 323.429688 L 100.382812 323.429688 Z M 100.382812 60.929688 " clip-rule="nonzero"/></clipPath></defs><g clip-path="url(#e92cb147ef)"><path fill="#000000" d="M 5.058594 159.746094 C 5.058594 86.765625 5.058594 50.277344 27.730469 27.605469 C 50.402344 4.933594 86.894531 4.933594 159.875 4.933594 L 224.378906 4.933594 C 297.359375 4.933594 333.847656 4.933594 356.519531 27.605469 C 379.191406 50.277344 379.191406 86.765625 379.191406 159.746094 L 379.191406 224.253906 C 379.191406 297.230469 379.191406 333.722656 356.519531 356.394531 C 333.847656 379.066406 297.359375 379.066406 224.378906 379.066406 L 159.875 379.066406 C 86.894531 379.066406 50.402344 379.066406 27.730469 356.394531 C 5.058594 333.722656 5.058594 297.230469 5.058594 224.253906 Z M 5.058594 159.746094 " fill-opacity="1" fill-rule="nonzero"/></g><path fill="#000000" d="M 304.191406 170.355469 L 242.371094 108.535156 L 180.550781 170.355469 L 242.371094 232.171875 Z M 304.191406 170.355469 " fill-opacity="1" fill-rule="nonzero"/><path fill="#000000" d="M 159.730469 108.539062 L 111.664062 108.539062 L 111.664062 292.039062 L 159.730469 292.039062 Z M 159.730469 108.539062 " fill-opacity="1" fill-rule="nonzero"/><g clip-path="url(#e905f4139a)"><path fill="#ffffff" d="M 292.339844 124.425781 L 146.515625 124.425781 L 146.515625 63.609375 C 146.515625 62.132812 147.71875 60.929688 149.195312 60.929688 L 219.671875 60.929688 C 256.675781 60.929688 287.503906 88.699219 292.339844 124.425781 Z M 212.296875 250.988281 L 213.890625 226.375 C 213.878906 224.902344 212.675781 223.695312 211.199219 223.707031 L 150.382812 223.902344 L 146.9375 323.03125 C 182.765625 318.9375 212.421875 287.996094 212.296875 250.988281 Z M 100.390625 205.808594 L 231.53125 205.808594 C 265.121094 205.808594 292.351562 178.582031 292.351562 144.992188 C 292.351562 143.519531 291.144531 142.3125 289.671875 142.3125 L 173.0625 142.3125 C 136.058594 142.3125 105.238281 170.082031 100.390625 205.808594 Z M 100.390625 205.808594 " fill-opacity="1" fill-rule="nonzero"/></g></svg>