<svg xmlns="http://www.w3.org/2000/svg" xmlns:xlink="http://www.w3.org/1999/xlink" width="58" zoomAndPan="magnify" viewBox="0 0 43.5 43.499999" height="58" preserveAspectRatio="xMidYMid meet" version="1.0"><defs><clipPath id="41fb11ac28"><path d="M 2.039062 2.039062 L 40.964844 2.039062 L 40.964844 40.964844 L 2.039062 40.964844 Z M 2.039062 2.039062 " clip-rule="nonzero"/></clipPath><clipPath id="d16ed67bee"><path d="M 4 2.039062 L 39 2.039062 L 39 21 L 4 21 Z M 4 2.039062 " clip-rule="nonzero"/></clipPath><clipPath id="dd7ba1f528"><path d="M 12.039062 16.007812 L 22.722656 16.007812 L 22.722656 26.691406 L 12.039062 26.691406 Z M 12.039062 16.007812 " clip-rule="nonzero"/></clipPath><clipPath id="c63f3e370d"><path d="M 12.039062 19 L 22.722656 19 L 22.722656 24 L 12.039062 24 Z M 12.039062 19 " clip-rule="nonzero"/></clipPath></defs><g clip-path="url(#41fb11ac28)"><path fill="#ef223b" d="M 40.964844 21.503906 C 40.964844 32.257812 32.25 40.964844 21.503906 40.964844 C 10.753906 40.964844 2.039062 32.257812 2.039062 21.503906 C 2.039062 18.175781 2.871094 15.042969 4.34375 12.300781 C 7.628906 6.191406 14.082031 2.039062 21.503906 2.039062 C 28.921875 2.039062 35.382812 6.199219 38.660156 12.304688 C 40.132812 15.042969 40.964844 18.175781 40.964844 21.503906 Z M 40.964844 21.503906 " fill-opacity="1" fill-rule="nonzero"/></g><g clip-path="url(#d16ed67bee)"><path fill="#ff3445" d="M 38.660156 12.304688 C 34.578125 17.207031 28.40625 20.328125 21.503906 20.328125 C 14.597656 20.328125 8.425781 17.207031 4.34375 12.300781 C 7.628906 6.191406 14.082031 2.039062 21.503906 2.039062 C 28.921875 2.039062 35.382812 6.199219 38.660156 12.304688 Z M 38.660156 12.304688 " fill-opacity="1" fill-rule="nonzero"/></g><path fill="#ffffff" d="M 33.636719 14.855469 L 33.636719 30.9375 C 33.636719 31.609375 33.085938 32.15625 32.417969 32.15625 L 10.589844 32.15625 C 9.914062 32.15625 9.371094 31.609375 9.371094 30.9375 L 9.371094 14.855469 Z M 33.636719 14.855469 " fill-opacity="1" fill-rule="nonzero"/><path fill="#313b5a" d="M 33.632812 14.851562 L 33.632812 12.066406 C 33.632812 11.394531 33.089844 10.847656 32.417969 10.847656 L 10.589844 10.847656 C 9.914062 10.847656 9.371094 11.394531 9.371094 12.066406 L 9.371094 14.851562 Z M 33.632812 14.851562 " fill-opacity="1" fill-rule="nonzero"/><path fill="#ef223b" d="M 12.464844 12.851562 C 12.464844 13.210938 12.171875 13.507812 11.808594 13.507812 C 11.441406 13.507812 11.152344 13.210938 11.152344 12.851562 C 11.152344 12.484375 11.441406 12.195312 11.808594 12.195312 C 12.171875 12.195312 12.464844 12.484375 12.464844 12.851562 Z M 12.464844 12.851562 " fill-opacity="1" fill-rule="nonzero"/><path fill="#fed110" d="M 14.691406 12.851562 C 14.691406 13.210938 14.398438 13.507812 14.035156 13.507812 C 13.667969 13.507812 13.378906 13.210938 13.378906 12.851562 C 13.378906 12.484375 13.667969 12.195312 14.035156 12.195312 C 14.398438 12.195312 14.691406 12.484375 14.691406 12.851562 Z M 14.691406 12.851562 " fill-opacity="1" fill-rule="nonzero"/><path fill="#0f9be8" d="M 16.917969 12.851562 C 16.917969 13.210938 16.625 13.507812 16.261719 13.507812 C 15.894531 13.507812 15.605469 13.210938 15.605469 12.851562 C 15.605469 12.484375 15.894531 12.195312 16.261719 12.195312 C 16.625 12.195312 16.917969 12.484375 16.917969 12.851562 Z M 16.917969 12.851562 " fill-opacity="1" fill-rule="nonzero"/><path fill="#20273a" d="M 31.984375 12.851562 C 31.984375 13.09375 31.789062 13.296875 31.539062 13.296875 L 21.726562 13.296875 C 21.476562 13.296875 21.28125 13.09375 21.28125 12.851562 C 21.28125 12.605469 21.476562 12.40625 21.726562 12.40625 L 31.539062 12.40625 C 31.789062 12.40625 31.984375 12.605469 31.984375 12.851562 Z M 31.984375 12.851562 " fill-opacity="1" fill-rule="nonzero"/><path fill="#000000" d="M 34.457031 34.355469 C 34.457031 34.789062 28.65625 35.136719 21.503906 35.136719 C 14.347656 35.136719 8.546875 34.789062 8.546875 34.355469 C 8.546875 33.925781 14.347656 33.582031 21.503906 33.582031 C 28.65625 33.582031 34.457031 33.925781 34.457031 34.355469 Z M 34.457031 34.355469 " fill-opacity="0.1" fill-rule="nonzero"/><path fill="#65b2ff" d="M 27.332031 17.46875 C 27.332031 17.625 27.203125 17.757812 27.042969 17.757812 L 23.570312 17.757812 C 23.410156 17.757812 23.28125 17.625 23.28125 17.46875 C 23.28125 17.308594 23.410156 17.179688 23.570312 17.179688 L 27.042969 17.179688 C 27.203125 17.179688 27.332031 17.308594 27.332031 17.46875 Z M 27.332031 17.46875 " fill-opacity="1" fill-rule="nonzero"/><path fill="#65b2ff" d="M 30.800781 19.410156 C 30.800781 19.566406 30.671875 19.699219 30.511719 19.699219 L 23.570312 19.699219 C 23.410156 19.699219 23.28125 19.566406 23.28125 19.410156 C 23.28125 19.25 23.410156 19.121094 23.570312 19.121094 L 30.511719 19.121094 C 30.671875 19.121094 30.800781 19.25 30.800781 19.410156 Z M 30.800781 19.410156 " fill-opacity="1" fill-rule="nonzero"/><path fill="#65b2ff" d="M 30.800781 21.351562 C 30.800781 21.507812 30.671875 21.640625 30.511719 21.640625 L 23.570312 21.640625 C 23.410156 21.640625 23.28125 21.507812 23.28125 21.351562 C 23.28125 21.191406 23.410156 21.0625 23.570312 21.0625 L 30.511719 21.0625 C 30.671875 21.0625 30.800781 21.191406 30.800781 21.351562 Z M 30.800781 21.351562 " fill-opacity="1" fill-rule="nonzero"/><path fill="#65b2ff" d="M 30.800781 23.292969 C 30.800781 23.453125 30.671875 23.582031 30.511719 23.582031 L 23.570312 23.582031 C 23.410156 23.582031 23.28125 23.453125 23.28125 23.292969 C 23.28125 23.132812 23.410156 23.003906 23.570312 23.003906 L 30.511719 23.003906 C 30.671875 23.003906 30.800781 23.132812 30.800781 23.292969 Z M 30.800781 23.292969 " fill-opacity="1" fill-rule="nonzero"/><path fill="#65b2ff" d="M 30.800781 27.625 C 30.800781 27.78125 30.671875 27.914062 30.511719 27.914062 L 12.496094 27.914062 C 12.335938 27.914062 12.207031 27.78125 12.207031 27.625 C 12.207031 27.464844 12.335938 27.335938 12.496094 27.335938 L 30.511719 27.335938 C 30.671875 27.335938 30.800781 27.464844 30.800781 27.625 Z M 30.800781 27.625 " fill-opacity="1" fill-rule="nonzero"/><path fill="#65b2ff" d="M 26.3125 29.542969 C 26.3125 29.699219 26.183594 29.832031 26.023438 29.832031 L 12.496094 29.832031 C 12.335938 29.832031 12.207031 29.699219 12.207031 29.542969 C 12.207031 29.382812 12.335938 29.253906 12.496094 29.253906 L 26.023438 29.253906 C 26.183594 29.253906 26.3125 29.382812 26.3125 29.542969 Z M 26.3125 29.542969 " fill-opacity="1" fill-rule="nonzero"/><path fill="#65b2ff" d="M 28.488281 29.542969 C 28.488281 29.699219 28.359375 29.832031 28.199219 29.832031 L 27.269531 29.832031 C 27.109375 29.832031 26.980469 29.699219 26.980469 29.542969 C 26.980469 29.382812 27.109375 29.253906 27.269531 29.253906 L 28.199219 29.253906 C 28.359375 29.253906 28.488281 29.382812 28.488281 29.542969 Z M 28.488281 29.542969 " fill-opacity="1" fill-rule="nonzero"/><path fill="#fed110" d="M 21.519531 17.589844 L 21.519531 25.144531 C 21.519531 25.355469 21.359375 25.523438 21.148438 25.523438 L 12.644531 25.523438 C 12.4375 25.523438 12.273438 25.355469 12.273438 25.144531 L 12.273438 17.589844 C 12.273438 17.378906 12.4375 17.21875 12.644531 17.21875 L 21.148438 17.21875 C 21.359375 17.21875 21.519531 17.378906 21.519531 17.589844 Z M 21.519531 17.589844 " fill-opacity="1" fill-rule="nonzero"/><path fill="#65b2ff" d="M 26.3125 25.234375 C 26.3125 25.394531 26.183594 25.523438 26.023438 25.523438 L 23.570312 25.523438 C 23.410156 25.523438 23.28125 25.394531 23.28125 25.234375 C 23.28125 25.074219 23.410156 24.945312 23.570312 24.945312 L 26.023438 24.945312 C 26.183594 24.945312 26.3125 25.074219 26.3125 25.234375 Z M 26.3125 25.234375 " fill-opacity="1" fill-rule="nonzero"/><path fill="#65b2ff" d="M 28.488281 25.234375 C 28.488281 25.394531 28.359375 25.523438 28.199219 25.523438 L 27.269531 25.523438 C 27.109375 25.523438 26.980469 25.394531 26.980469 25.234375 C 26.980469 25.074219 27.109375 24.945312 27.269531 24.945312 L 28.199219 24.945312 C 28.359375 24.945312 28.488281 25.074219 28.488281 25.234375 Z M 28.488281 25.234375 " fill-opacity="1" fill-rule="nonzero"/><path fill="#ffffff" d="M 20.15625 21.375 C 20.15625 21.546875 20.015625 21.6875 19.84375 21.6875 L 19.140625 21.6875 C 18.96875 21.6875 18.828125 21.546875 18.828125 21.375 C 18.828125 21.199219 18.96875 21.058594 19.140625 21.058594 L 19.84375 21.058594 C 20.015625 21.058594 20.15625 21.199219 20.15625 21.375 Z M 20.15625 21.375 " fill-opacity="1" fill-rule="nonzero"/><path fill="#ffffff" d="M 14.964844 21.375 C 14.964844 21.546875 14.828125 21.6875 14.65625 21.6875 L 13.949219 21.6875 C 13.78125 21.6875 13.640625 21.546875 13.640625 21.375 C 13.640625 21.199219 13.78125 21.058594 13.949219 21.058594 L 14.65625 21.058594 C 14.828125 21.058594 14.964844 21.199219 14.964844 21.375 Z M 14.964844 21.375 " fill-opacity="1" fill-rule="nonzero"/><path fill="#ffffff" d="M 18.125 22.195312 C 18.125 22.714844 17.753906 23.167969 17.210938 23.300781 L 17.210938 23.574219 C 17.210938 23.746094 17.070312 23.886719 16.898438 23.886719 C 16.722656 23.886719 16.582031 23.746094 16.582031 23.574219 L 16.582031 23.300781 C 16.046875 23.167969 15.667969 22.714844 15.667969 22.195312 C 15.667969 22.023438 15.808594 21.882812 15.980469 21.882812 C 16.15625 21.882812 16.300781 22.023438 16.300781 22.195312 C 16.300781 22.484375 16.566406 22.714844 16.898438 22.714844 C 17.226562 22.714844 17.5 22.484375 17.5 22.195312 C 17.5 21.914062 17.226562 21.683594 16.898438 21.683594 C 16.21875 21.683594 15.667969 21.171875 15.667969 20.546875 C 15.667969 20.027344 16.039062 19.578125 16.582031 19.441406 L 16.582031 19.167969 C 16.582031 18.996094 16.722656 18.855469 16.898438 18.855469 C 17.070312 18.855469 17.210938 18.996094 17.210938 19.167969 L 17.210938 19.441406 C 17.753906 19.578125 18.125 20.027344 18.125 20.546875 C 18.125 20.71875 17.984375 20.859375 17.8125 20.859375 C 17.640625 20.859375 17.5 20.71875 17.5 20.546875 C 17.5 20.257812 17.226562 20.027344 16.898438 20.027344 C 16.566406 20.027344 16.300781 20.257812 16.300781 20.546875 C 16.300781 20.832031 16.566406 21.058594 16.898438 21.058594 C 17.574219 21.058594 18.125 21.574219 18.125 22.195312 Z M 18.125 22.195312 " fill-opacity="1" fill-rule="nonzero"/><g clip-path="url(#dd7ba1f528)"><path fill="#eacf22" d="M 22.640625 25.429688 C 22.640625 26.082031 22.113281 26.609375 21.460938 26.609375 L 13.214844 26.609375 C 12.566406 26.609375 12.039062 26.082031 12.039062 25.429688 L 12.039062 17.183594 C 12.039062 16.535156 12.566406 16.007812 13.214844 16.007812 L 21.460938 16.007812 C 22.113281 16.007812 22.640625 16.535156 22.640625 17.183594 Z M 22.640625 25.429688 " fill-opacity="1" fill-rule="nonzero"/></g><g clip-path="url(#c63f3e370d)"><path fill="#ffffff" d="M 12.578125 19.714844 C 12.578125 19.496094 12.726562 19.300781 12.992188 19.300781 L 14.351562 19.300781 C 14.582031 19.300781 14.707031 19.480469 14.707031 19.664062 C 14.707031 19.847656 14.589844 20.03125 14.351562 20.03125 L 13.375 20.03125 L 13.375 20.804688 L 14.195312 20.804688 C 14.449219 20.804688 14.578125 20.988281 14.578125 21.167969 C 14.578125 21.351562 14.449219 21.539062 14.195312 21.539062 L 13.375 21.539062 L 13.375 22.695312 C 13.375 22.960938 13.203125 23.109375 12.976562 23.109375 C 12.75 23.109375 12.578125 22.960938 12.578125 22.695312 Z M 14.933594 19.714844 C 14.933594 19.460938 15.074219 19.300781 15.339844 19.300781 L 16.273438 19.300781 C 17.089844 19.300781 17.59375 19.664062 17.59375 20.5 C 17.59375 21.082031 17.15625 21.414062 16.613281 21.5 L 17.515625 22.464844 C 17.589844 22.546875 17.621094 22.625 17.621094 22.699219 C 17.621094 22.90625 17.457031 23.109375 17.222656 23.109375 C 17.128906 23.109375 17 23.070312 16.914062 22.96875 L 15.738281 21.542969 L 15.726562 21.542969 L 15.726562 22.695312 C 15.726562 22.957031 15.558594 23.105469 15.328125 23.105469 C 15.101562 23.105469 14.933594 22.957031 14.933594 22.695312 Z M 15.726562 20.96875 L 16.273438 20.96875 C 16.566406 20.96875 16.765625 20.796875 16.765625 20.5 C 16.765625 20.195312 16.566406 20.03125 16.273438 20.03125 L 15.726562 20.03125 Z M 17.773438 19.761719 C 17.773438 19.496094 17.90625 19.300781 18.1875 19.300781 L 19.503906 19.300781 C 19.757812 19.300781 19.878906 19.480469 19.878906 19.664062 C 19.878906 19.847656 19.75 20.03125 19.503906 20.03125 L 18.570312 20.03125 L 18.570312 20.804688 L 19.4375 20.804688 C 19.699219 20.804688 19.824219 20.988281 19.824219 21.171875 C 19.824219 21.351562 19.695312 21.539062 19.4375 21.539062 L 18.570312 21.539062 L 18.570312 22.34375 L 19.550781 22.34375 C 19.804688 22.34375 19.925781 22.523438 19.925781 22.710938 C 19.925781 22.890625 19.800781 23.074219 19.550781 23.074219 L 18.183594 23.074219 C 17.949219 23.074219 17.773438 22.917969 17.773438 22.675781 Z M 20.121094 19.761719 C 20.121094 19.496094 20.253906 19.300781 20.535156 19.300781 L 21.851562 19.300781 C 22.105469 19.300781 22.226562 19.480469 22.226562 19.664062 C 22.226562 19.847656 22.101562 20.03125 21.851562 20.03125 L 20.917969 20.03125 L 20.917969 20.804688 L 21.789062 20.804688 C 22.046875 20.804688 22.175781 20.988281 22.175781 21.171875 C 22.175781 21.351562 22.042969 21.539062 21.789062 21.539062 L 20.917969 21.539062 L 20.917969 22.34375 L 21.898438 22.34375 C 22.152344 22.34375 22.273438 22.523438 22.273438 22.710938 C 22.273438 22.890625 22.148438 23.074219 21.898438 23.074219 L 20.53125 23.074219 C 20.296875 23.074219 20.121094 22.917969 20.121094 22.675781 Z M 20.121094 19.761719 " fill-opacity="1" fill-rule="nonzero"/></g></svg>