<svg xmlns="http://www.w3.org/2000/svg" xmlns:xlink="http://www.w3.org/1999/xlink" width="506" zoomAndPan="magnify" viewBox="0 0 379.5 79.499998" height="106" preserveAspectRatio="xMidYMid meet" version="1.0"><defs><g/><clipPath id="4344d24ed0"><path d="M 12 0.617188 L 91 0.617188 L 91 78.132812 L 12 78.132812 Z M 12 0.617188 " clip-rule="nonzero"/></clipPath><clipPath id="8cf60761a8"><path d="M 32.785156 12.257812 L 73.03125 12.257812 L 73.03125 66.664062 L 32.785156 66.664062 Z M 32.785156 12.257812 " clip-rule="nonzero"/></clipPath></defs><g clip-path="url(#4344d24ed0)"><path fill="#ffffff" d="M 12.988281 32.792969 C 12.988281 17.625 12.988281 10.042969 17.699219 5.332031 C 22.414062 0.617188 29.996094 0.617188 45.164062 0.617188 L 58.570312 0.617188 C 73.738281 0.617188 81.320312 0.617188 86.035156 5.332031 C 90.746094 10.042969 90.746094 17.625 90.746094 32.792969 L 90.746094 46.199219 C 90.746094 61.367188 90.746094 68.953125 86.035156 73.664062 C 81.320312 78.375 73.738281 78.375 58.570312 78.375 L 45.164062 78.375 C 29.996094 78.375 22.414062 78.375 17.699219 73.664062 C 12.988281 68.953125 12.988281 61.367188 12.988281 46.199219 Z M 12.988281 32.792969 " fill-opacity="1" fill-rule="nonzero"/></g><path fill="#ffffff" d="M 75.15625 35 L 62.308594 22.152344 L 49.460938 35 L 62.308594 47.847656 Z M 75.15625 35 " fill-opacity="1" fill-rule="nonzero"/><path fill="#ffffff" d="M 45.132812 22.152344 L 35.144531 22.152344 L 35.144531 60.289062 L 45.132812 60.289062 Z M 45.132812 22.152344 " fill-opacity="1" fill-rule="nonzero"/><g clip-path="url(#8cf60761a8)"><path fill="#000000" d="M 73.015625 25.4375 L 42.453125 25.4375 L 42.453125 12.8125 C 42.453125 12.507812 42.707031 12.257812 43.015625 12.257812 L 57.785156 12.257812 C 65.542969 12.257812 72.003906 18.019531 73.015625 25.4375 Z M 56.242188 51.707031 L 56.574219 46.597656 C 56.574219 46.292969 56.320312 46.039062 56.011719 46.042969 L 43.265625 46.082031 L 42.542969 66.65625 C 50.050781 65.808594 56.265625 59.386719 56.242188 51.707031 Z M 32.789062 42.328125 L 60.273438 42.328125 C 67.3125 42.328125 73.019531 36.675781 73.019531 29.707031 C 73.019531 29.398438 72.765625 29.148438 72.457031 29.148438 L 48.019531 29.148438 C 40.261719 29.148438 33.804688 34.914062 32.789062 42.328125 Z M 32.789062 42.328125 " fill-opacity="1" fill-rule="nonzero"/></g><path fill="#fdfdfc" d="M 122.054688 49.628906 L 122.054688 49.789062 C 141.164062 51.21875 148.792969 43.832031 148.792969 31.753906 C 148.792969 19.238281 140.449219 14.035156 127.101562 14.832031 L 127.101562 14.988281 C 132.78125 15.308594 137.707031 21.503906 137.707031 32.390625 C 137.707031 41.40625 134.09375 50.027344 122.054688 49.628906 Z M 102.90625 72.433594 L 123.921875 72.433594 L 123.921875 72.273438 C 120.347656 71.480469 118.082031 69.054688 118.082031 65.082031 L 118.082031 22.179688 C 118.082031 18.207031 119.949219 15.785156 123.128906 14.988281 L 123.128906 14.832031 L 102.90625 14.832031 L 102.90625 14.988281 C 106.085938 15.785156 107.953125 18.207031 107.953125 22.179688 L 107.953125 65.082031 C 107.953125 69.054688 106.085938 71.480469 102.90625 72.273438 Z M 102.90625 72.433594 " fill-opacity="1" fill-rule="nonzero"/><path fill="#fdfdfc" d="M 159.46875 25.46875 C 162.882812 25.46875 165.625 22.726562 165.625 19.269531 C 165.625 15.855469 162.882812 13.113281 159.46875 13.113281 C 156.011719 13.113281 153.269531 15.855469 153.269531 19.269531 C 153.269531 22.726562 156.011719 25.46875 159.46875 25.46875 Z M 149.773438 36.394531 C 153.351562 36.988281 155.21875 39.015625 155.21875 43.859375 L 155.21875 65.113281 C 155.21875 69.085938 153.3125 71.46875 150.132812 72.265625 L 150.132812 72.421875 L 169.835938 72.421875 L 169.835938 72.265625 C 166.660156 71.46875 164.75 69.085938 164.75 65.113281 L 164.75 31.902344 C 159.867188 33.769531 155.457031 35.042969 149.773438 36.234375 Z M 149.773438 36.394531 " fill-opacity="1" fill-rule="nonzero"/><path fill="#fdfdfc" d="M 171.464844 72.269531 L 171.464844 72.429688 L 191.167969 72.429688 L 191.167969 72.269531 C 187.988281 71.476562 186.082031 69.089844 186.082031 65.117188 L 186.082031 8.867188 C 181.195312 10.734375 176.789062 12.007812 171.105469 13.199219 L 171.105469 13.355469 C 174.683594 13.953125 176.546875 15.980469 176.546875 20.824219 L 176.546875 65.117188 C 176.546875 69.089844 174.640625 71.476562 171.464844 72.269531 Z M 189.578125 53.398438 L 189.65625 53.519531 C 191.246094 53.917969 192.71875 56.894531 196.691406 63.609375 C 199.273438 67.980469 201.8125 72.746094 208.527344 72.746094 C 212.101562 72.746094 216.511719 71.394531 218.816406 69.566406 L 218.699219 69.410156 C 217.824219 69.808594 216.949219 70.125 215.878906 70.125 C 213.097656 70.125 210.753906 67.421875 204.554688 57.769531 C 199.867188 50.5 198.199219 47.796875 198.359375 45.574219 L 198.238281 45.453125 Z M 196.929688 32.863281 C 201.417969 33.695312 205.351562 38.183594 201.21875 42.792969 L 201.378906 42.914062 C 205.628906 38.464844 210.710938 34.730469 215.71875 32.863281 L 215.71875 32.703125 L 196.929688 32.703125 Z M 196.929688 32.863281 " fill-opacity="1" fill-rule="nonzero"/><path fill="#fdfdfc" d="M 234.511719 72.519531 L 234.511719 72.679688 C 239.992188 72.480469 246.390625 70.015625 246.390625 62.628906 C 246.390625 55.320312 239.753906 51.027344 234.867188 47.691406 C 228.75 43.519531 225.414062 40.582031 225.414062 37.046875 C 225.414062 34.464844 227.082031 32.914062 229.980469 32.476562 L 229.980469 32.316406 C 224.5 32.515625 218.105469 35.417969 218.105469 42.648438 C 218.105469 48.566406 222.355469 52.933594 228.789062 57.382812 C 234.710938 61.476562 239 64.296875 239 68.191406 C 239 70.730469 237.410156 72.082031 234.511719 72.519531 Z M 217.351562 56.429688 C 218.023438 61.792969 218.105469 67.753906 217.589844 72.003906 L 217.746094 72.082031 C 220.726562 70.773438 225.414062 72.203125 230.9375 72.679688 L 230.9375 72.519531 C 223.984375 70.851562 220.171875 62.507812 217.507812 56.351562 Z M 233.160156 32.515625 C 239.675781 34.703125 242.734375 42.886719 245.195312 48.445312 L 245.355469 48.367188 C 244.640625 42.84375 244.203125 36.964844 244.71875 32.792969 L 244.5625 32.714844 C 242.296875 34.503906 238.164062 32.753906 233.160156 32.359375 Z M 233.160156 32.515625 " fill-opacity="1" fill-rule="nonzero"/><path fill="#fdfdfc" d="M 270.476562 72.757812 C 281.519531 72.835938 286.367188 65.726562 287.359375 62.269531 L 287.199219 62.230469 C 285.453125 66.402344 280.367188 71.40625 273.890625 71.40625 C 265.46875 71.40625 261.300781 63.023438 261.21875 51.621094 C 261.179688 41.652344 264.558594 33.429688 269.007812 32.554688 L 269.007812 32.394531 C 258.121094 32.792969 250.296875 41.691406 250.574219 53.847656 C 250.851562 65.804688 258.957031 72.675781 270.476562 72.757812 Z M 265.191406 50.628906 L 288.113281 50.429688 C 287.835938 40.421875 281.957031 32.871094 272.582031 32.394531 L 272.582031 32.554688 C 275.5625 33.667969 277.746094 37.839844 277.863281 43.003906 C 277.945312 48.046875 275.957031 49.714844 265.191406 50.472656 Z M 265.191406 50.628906 " fill-opacity="1" fill-rule="nonzero"/><path fill="#fdfdfc" d="M 290.9375 72.28125 L 290.9375 72.4375 L 311.632812 72.4375 L 311.632812 72.28125 C 308.058594 71.484375 305.753906 69.101562 305.753906 65.128906 L 305.753906 32.117188 C 300.867188 33.984375 296.257812 35.253906 290.578125 36.449219 L 290.578125 36.605469 C 294.152344 37.203125 296.019531 39.226562 296.019531 44.074219 L 296.019531 65.128906 C 296.019531 69.101562 294.113281 71.484375 290.9375 72.28125 Z M 308.136719 42.605469 L 308.296875 42.644531 C 309.527344 39.824219 310.601562 38.871094 312.148438 38.871094 C 314.730469 38.871094 317.871094 42.484375 318.347656 48.007812 L 318.503906 48.046875 C 320.292969 42.882812 321.960938 38.792969 323.667969 34.582031 C 322 33.347656 319.738281 32.195312 317.351562 32.195312 C 313.300781 32.195312 309.964844 35.613281 308.136719 42.605469 Z M 308.136719 42.605469 " fill-opacity="1" fill-rule="nonzero"/><path fill="#fdfdfc" d="M 352.375 72.71875 C 355.910156 72.71875 359.40625 71.40625 361.710938 69.617188 L 361.632812 69.460938 C 356.902344 71.484375 354.917969 68.546875 354.917969 62.546875 C 354.917969 55.636719 355.234375 50.429688 355.234375 44.113281 C 355.234375 34.023438 349.953125 32.394531 345.78125 32.394531 C 343.914062 32.394531 342.402344 32.714844 341.410156 32.992188 L 341.449219 33.152344 C 345.503906 32.753906 345.382812 37.003906 345.382812 44.234375 C 345.382812 51.027344 345.066406 57.144531 345.066406 63.582031 C 345.066406 68.585938 345.941406 72.71875 352.375 72.71875 Z M 322.183594 62.824219 C 322.183594 69.222656 326.792969 72.757812 332.871094 72.757812 C 337.757812 72.757812 341.054688 70.453125 342.601562 69.023438 L 342.523438 68.863281 C 341.292969 69.699219 339.78125 70.375 338.3125 70.375 C 334.855469 70.375 332.832031 66.640625 332.832031 61.832031 C 332.832031 56.191406 335.492188 50.75 341.808594 49.515625 L 341.808594 49.359375 C 333.742188 49.636719 322.183594 52.496094 322.183594 62.824219 Z M 325.917969 48.324219 L 326.078125 48.40625 C 329.53125 41.015625 333.347656 35.535156 337.914062 33.824219 L 337.875 33.667969 C 334.339844 34.382812 329.890625 34.78125 326.710938 32.832031 L 326.554688 32.914062 C 327.308594 37.28125 327.1875 42.40625 325.917969 48.324219 Z M 325.917969 48.324219 " fill-opacity="1" fill-rule="nonzero"/><path fill="#f16624" d="M 308.113281 2.472656 L 350.949219 2.472656 C 354.238281 2.472656 356.90625 5.140625 356.90625 8.429688 L 356.90625 20.34375 C 356.90625 23.632812 354.238281 26.300781 350.949219 26.300781 L 308.113281 26.300781 C 304.824219 26.300781 302.15625 23.632812 302.15625 20.34375 L 302.15625 8.429688 C 302.15625 5.140625 304.824219 2.472656 308.113281 2.472656 Z M 308.113281 2.472656 " fill-opacity="1" fill-rule="nonzero"/><g fill="#ffffff" fill-opacity="1"><g transform="translate(310.612465, 18.652265)"><g><path d="M 1.351562 -12.089844 L 1.351562 0 L 7.609375 0 L 7.609375 -2.417969 L 3.769531 -2.417969 L 3.769531 -12.089844 Z M 1.351562 -12.089844 "/></g></g></g><g fill="#ffffff" fill-opacity="1"><g transform="translate(322.328388, 18.652265)"><g><path d="M 6.898438 -6.964844 L 2.128906 -12.277344 L 1.351562 -12.277344 L 1.351562 0 L 3.804688 0 L 3.804688 -6.746094 L 6.898438 -3.5 L 9.992188 -6.746094 L 9.976562 0 L 12.429688 0 L 12.429688 -12.277344 L 11.667969 -12.277344 Z M 6.898438 -6.964844 "/></g></g></g><g fill="#ffffff" fill-opacity="1"><g transform="translate(339.504049, 18.652265)"><g><path d="M 0.792969 -0.777344 C 2.433594 0.0664062 3.941406 0.152344 4.617188 0.101562 C 6.882812 -0.015625 8.269531 -1.554688 8.269531 -3.566406 C 8.269531 -5.496094 6.644531 -6.578125 4.769531 -7.269531 C 4.074219 -7.507812 3.484375 -7.8125 3.414062 -8.488281 C 3.363281 -9.164062 3.753906 -9.789062 4.617188 -9.839844 C 4.988281 -9.859375 5.75 -9.875 7.085938 -9.335938 L 7.390625 -11.667969 C 5.832031 -12.207031 5.003906 -12.207031 4.378906 -12.175781 C 2.367188 -12.074219 0.964844 -10.519531 0.964844 -8.488281 C 0.964844 -6.460938 2.65625 -5.496094 4.546875 -4.800781 C 5.226562 -4.566406 5.75 -4.261719 5.800781 -3.566406 C 5.867188 -2.910156 5.257812 -2.402344 4.546875 -2.351562 C 3.992188 -2.300781 2.484375 -2.332031 1.097656 -3.3125 Z M 0.792969 -0.777344 "/></g></g></g></svg>