<svg xmlns="http://www.w3.org/2000/svg" xmlns:xlink="http://www.w3.org/1999/xlink" width="506" zoomAndPan="magnify" viewBox="0 0 379.5 79.499998" height="106" preserveAspectRatio="xMidYMid meet" version="1.0"><defs><g/><clipPath id="f8397b63f7"><path d="M 12 0.617188 L 91 0.617188 L 91 78.132812 L 12 78.132812 Z M 12 0.617188 " clip-rule="nonzero"/></clipPath><clipPath id="824cd64451"><path d="M 32.785156 12.257812 L 73 12.257812 L 73 66.664062 L 32.785156 66.664062 Z M 32.785156 12.257812 " clip-rule="nonzero"/></clipPath></defs><g clip-path="url(#f8397b63f7)"><path fill="#000000" d="M 12.988281 32.792969 C 12.988281 17.625 12.988281 10.042969 17.699219 5.332031 C 22.414062 0.617188 29.996094 0.617188 45.164062 0.617188 L 58.570312 0.617188 C 73.738281 0.617188 81.320312 0.617188 86.035156 5.332031 C 90.746094 10.042969 90.746094 17.625 90.746094 32.792969 L 90.746094 46.199219 C 90.746094 61.367188 90.746094 68.953125 86.035156 73.664062 C 81.320312 78.375 73.738281 78.375 58.570312 78.375 L 45.164062 78.375 C 29.996094 78.375 22.414062 78.375 17.699219 73.664062 C 12.988281 68.953125 12.988281 61.367188 12.988281 46.199219 Z M 12.988281 32.792969 " fill-opacity="1" fill-rule="nonzero"/></g><path fill="#000000" d="M 75.15625 35 L 62.308594 22.152344 L 49.460938 35 L 62.308594 47.847656 Z M 75.15625 35 " fill-opacity="1" fill-rule="nonzero"/><path fill="#000000" d="M 45.132812 22.152344 L 35.144531 22.152344 L 35.144531 60.289062 L 45.132812 60.289062 Z M 45.132812 22.152344 " fill-opacity="1" fill-rule="nonzero"/><g clip-path="url(#824cd64451)"><path fill="#ffffff" d="M 72.679688 25.453125 L 42.375 25.453125 L 42.375 12.816406 C 42.375 12.507812 42.625 12.257812 42.929688 12.257812 L 57.578125 12.257812 C 65.265625 12.257812 71.671875 18.027344 72.679688 25.453125 Z M 56.042969 51.757812 L 56.375 46.640625 C 56.371094 46.335938 56.121094 46.085938 55.816406 46.085938 L 43.175781 46.128906 L 42.460938 66.726562 C 49.90625 65.878906 56.070312 59.445312 56.042969 51.757812 Z M 32.789062 42.367188 L 60.042969 42.367188 C 67.023438 42.367188 72.679688 36.707031 72.679688 29.726562 C 72.679688 29.421875 72.429688 29.171875 72.125 29.171875 L 47.890625 29.171875 C 40.199219 29.171875 33.796875 34.941406 32.789062 42.367188 Z M 32.789062 42.367188 " fill-opacity="1" fill-rule="nonzero"/></g><path fill="#000000" d="M 129.792969 51.21875 L 129.792969 51.375 C 148.289062 52.757812 155.675781 45.605469 155.675781 33.917969 C 155.675781 21.804688 147.597656 16.765625 134.679688 17.535156 L 134.679688 17.6875 C 140.175781 17.996094 144.945312 23.996094 144.945312 34.53125 C 144.945312 43.261719 141.445312 51.605469 129.792969 51.21875 Z M 111.261719 73.292969 L 131.601562 73.292969 L 131.601562 73.136719 C 128.140625 72.371094 125.949219 70.023438 125.949219 66.179688 L 125.949219 24.648438 C 125.949219 20.804688 127.757812 18.457031 130.832031 17.6875 L 130.832031 17.535156 L 111.261719 17.535156 L 111.261719 17.6875 C 114.335938 18.457031 116.144531 20.804688 116.144531 24.648438 L 116.144531 66.179688 C 116.144531 70.023438 114.335938 72.371094 111.261719 73.136719 Z M 111.261719 73.292969 " fill-opacity="1" fill-rule="nonzero"/><path fill="#000000" d="M 166.027344 27.828125 C 169.335938 27.828125 171.988281 25.175781 171.988281 21.828125 C 171.988281 18.523438 169.335938 15.867188 166.027344 15.867188 C 162.683594 15.867188 160.027344 18.523438 160.027344 21.828125 C 160.027344 25.175781 162.683594 27.828125 166.027344 27.828125 Z M 156.644531 38.402344 C 160.105469 38.980469 161.914062 40.941406 161.914062 45.632812 L 161.914062 66.203125 C 161.914062 70.050781 160.066406 72.355469 156.992188 73.125 L 156.992188 73.277344 L 176.0625 73.277344 L 176.0625 73.125 C 172.988281 72.355469 171.140625 70.050781 171.140625 66.203125 L 171.140625 34.058594 C 166.410156 35.863281 162.144531 37.09375 156.644531 38.25 Z M 156.644531 38.402344 " fill-opacity="1" fill-rule="nonzero"/><path fill="#000000" d="M 177.621094 73.125 L 177.621094 73.277344 L 196.691406 73.277344 L 196.691406 73.125 C 193.617188 72.355469 191.769531 70.050781 191.769531 66.203125 L 191.769531 11.753906 C 187.042969 13.5625 182.773438 14.792969 177.273438 15.945312 L 177.273438 16.097656 C 180.734375 16.675781 182.542969 18.636719 182.542969 23.328125 L 182.542969 66.203125 C 182.542969 70.050781 180.695312 72.355469 177.621094 73.125 Z M 195.15625 54.859375 L 195.230469 54.976562 C 196.769531 55.359375 198.191406 58.242188 202.039062 64.742188 C 204.539062 68.972656 207 73.585938 213.496094 73.585938 C 216.957031 73.585938 221.226562 72.28125 223.457031 70.511719 L 223.339844 70.355469 C 222.496094 70.742188 221.648438 71.050781 220.609375 71.050781 C 217.917969 71.050781 215.652344 68.433594 209.652344 59.089844 C 205.113281 52.054688 203.5 49.4375 203.652344 47.285156 L 203.539062 47.167969 Z M 202.269531 34.980469 C 206.613281 35.789062 210.421875 40.132812 206.421875 44.59375 L 206.574219 44.707031 C 210.691406 40.402344 215.613281 36.789062 220.457031 34.980469 L 220.457031 34.824219 L 202.269531 34.824219 Z M 202.269531 34.980469 " fill-opacity="1" fill-rule="nonzero"/><path fill="#000000" d="M 238.65625 73.382812 L 238.65625 73.535156 C 243.964844 73.34375 250.15625 70.957031 250.15625 63.804688 C 250.15625 56.730469 243.734375 52.578125 239.003906 49.347656 C 233.082031 45.308594 229.851562 42.464844 229.851562 39.042969 C 229.851562 36.542969 231.46875 35.042969 234.273438 34.621094 L 234.273438 34.464844 C 228.96875 34.660156 222.777344 37.464844 222.777344 44.464844 C 222.777344 50.195312 226.890625 54.425781 233.121094 58.730469 C 238.851562 62.691406 243.003906 65.421875 243.003906 69.191406 C 243.003906 71.652344 241.464844 72.957031 238.65625 73.382812 Z M 222.046875 57.808594 C 222.699219 63 222.777344 68.765625 222.277344 72.882812 L 222.429688 72.957031 C 225.3125 71.6875 229.851562 73.074219 235.195312 73.535156 L 235.195312 73.382812 C 228.46875 71.765625 224.777344 63.691406 222.199219 57.730469 Z M 237.351562 34.660156 C 243.65625 36.773438 246.617188 44.695312 249 50.078125 L 249.15625 50 C 248.464844 44.65625 248.039062 38.964844 248.539062 34.929688 L 248.386719 34.851562 C 246.195312 36.582031 242.195312 34.890625 237.351562 34.503906 Z M 237.351562 34.660156 " fill-opacity="1" fill-rule="nonzero"/><path fill="#000000" d="M 273.464844 73.617188 C 284.15625 73.691406 288.847656 66.808594 289.808594 63.464844 L 289.65625 63.425781 C 287.960938 67.464844 283.039062 72.308594 276.773438 72.308594 C 268.621094 72.308594 264.582031 64.195312 264.507812 53.160156 C 264.46875 43.507812 267.738281 35.546875 272.042969 34.699219 L 272.042969 34.546875 C 261.507812 34.929688 253.933594 43.546875 254.199219 55.3125 C 254.46875 66.886719 262.316406 73.539062 273.464844 73.617188 Z M 268.351562 52.195312 L 290.539062 52.003906 C 290.269531 42.316406 284.578125 35.007812 275.503906 34.546875 L 275.503906 34.699219 C 278.386719 35.777344 280.503906 39.816406 280.617188 44.8125 C 280.695312 49.699219 278.773438 51.3125 268.351562 52.042969 Z M 268.351562 52.195312 " fill-opacity="1" fill-rule="nonzero"/><path fill="#000000" d="M 293.273438 73.152344 L 293.273438 73.308594 L 313.308594 73.308594 L 313.308594 73.152344 C 309.847656 72.382812 307.617188 70.078125 307.617188 66.230469 L 307.617188 34.277344 C 302.886719 36.085938 298.425781 37.316406 292.929688 38.46875 L 292.929688 38.621094 C 296.390625 39.199219 298.195312 41.160156 298.195312 45.851562 L 298.195312 66.230469 C 298.195312 70.078125 296.351562 72.382812 293.273438 73.152344 Z M 309.925781 44.429688 L 310.078125 44.46875 C 311.269531 41.738281 312.308594 40.816406 313.808594 40.816406 C 316.308594 40.816406 319.347656 44.3125 319.808594 49.660156 L 319.960938 49.695312 C 321.691406 44.699219 323.308594 40.738281 324.960938 36.660156 C 323.34375 35.46875 321.152344 34.355469 318.847656 34.355469 C 314.925781 34.355469 311.695312 37.660156 309.925781 44.429688 Z M 309.925781 44.429688 " fill-opacity="1" fill-rule="nonzero"/><path fill="#000000" d="M 352.742188 73.578125 C 356.164062 73.578125 359.546875 72.308594 361.777344 70.578125 L 361.703125 70.425781 C 357.125 72.386719 355.203125 69.539062 355.203125 63.734375 C 355.203125 57.042969 355.511719 52.003906 355.511719 45.890625 C 355.511719 36.125 350.398438 34.546875 346.359375 34.546875 C 344.550781 34.546875 343.089844 34.855469 342.128906 35.125 L 342.167969 35.277344 C 346.089844 34.894531 345.972656 39.007812 345.972656 46.007812 C 345.972656 52.582031 345.667969 58.503906 345.667969 64.734375 C 345.667969 69.578125 346.511719 73.578125 352.742188 73.578125 Z M 323.519531 64.003906 C 323.519531 70.191406 327.976562 73.617188 333.863281 73.617188 C 338.589844 73.617188 341.78125 71.386719 343.28125 70 L 343.207031 69.847656 C 342.015625 70.65625 340.550781 71.308594 339.128906 71.308594 C 335.785156 71.308594 333.824219 67.695312 333.824219 63.039062 C 333.824219 57.582031 336.398438 52.3125 342.515625 51.121094 L 342.515625 50.964844 C 334.707031 51.234375 323.519531 54.003906 323.519531 64.003906 Z M 327.132812 49.964844 L 327.285156 50.042969 C 330.632812 42.890625 334.324219 37.585938 338.746094 35.929688 L 338.707031 35.777344 C 335.285156 36.46875 330.976562 36.855469 327.902344 34.96875 L 327.746094 35.046875 C 328.476562 39.277344 328.363281 44.238281 327.132812 49.964844 Z M 327.132812 49.964844 " fill-opacity="1" fill-rule="nonzero"/><path fill="#f16624" d="M 308.113281 2.472656 L 350.949219 2.472656 C 354.238281 2.472656 356.90625 5.140625 356.90625 8.429688 L 356.90625 20.34375 C 356.90625 23.632812 354.238281 26.300781 350.949219 26.300781 L 308.113281 26.300781 C 304.824219 26.300781 302.15625 23.632812 302.15625 20.34375 L 302.15625 8.429688 C 302.15625 5.140625 304.824219 2.472656 308.113281 2.472656 Z M 308.113281 2.472656 " fill-opacity="1" fill-rule="nonzero"/><g fill="#ffffff" fill-opacity="1"><g transform="translate(310.612465, 18.652269)"><g><path d="M 1.351562 -12.089844 L 1.351562 0 L 7.609375 0 L 7.609375 -2.417969 L 3.769531 -2.417969 L 3.769531 -12.089844 Z M 1.351562 -12.089844 "/></g></g></g><g fill="#ffffff" fill-opacity="1"><g transform="translate(322.328388, 18.652269)"><g><path d="M 6.898438 -6.964844 L 2.128906 -12.277344 L 1.351562 -12.277344 L 1.351562 0 L 3.804688 0 L 3.804688 -6.746094 L 6.898438 -3.5 L 9.992188 -6.746094 L 9.976562 0 L 12.429688 0 L 12.429688 -12.277344 L 11.667969 -12.277344 Z M 6.898438 -6.964844 "/></g></g></g><g fill="#ffffff" fill-opacity="1"><g transform="translate(339.504049, 18.652269)"><g><path d="M 0.792969 -0.777344 C 2.433594 0.0664062 3.941406 0.152344 4.617188 0.101562 C 6.882812 -0.015625 8.269531 -1.554688 8.269531 -3.566406 C 8.269531 -5.496094 6.644531 -6.578125 4.769531 -7.269531 C 4.074219 -7.507812 3.484375 -7.8125 3.414062 -8.488281 C 3.363281 -9.164062 3.753906 -9.789062 4.617188 -9.839844 C 4.988281 -9.859375 5.75 -9.875 7.085938 -9.335938 L 7.390625 -11.667969 C 5.832031 -12.207031 5.003906 -12.207031 4.378906 -12.175781 C 2.367188 -12.074219 0.964844 -10.519531 0.964844 -8.488281 C 0.964844 -6.460938 2.65625 -5.496094 4.546875 -4.800781 C 5.226562 -4.566406 5.75 -4.261719 5.800781 -3.566406 C 5.867188 -2.910156 5.257812 -2.402344 4.546875 -2.351562 C 3.992188 -2.300781 2.484375 -2.332031 1.097656 -3.3125 Z M 0.792969 -0.777344 "/></g></g></g></svg>