<svg xmlns="http://www.w3.org/2000/svg" xmlns:xlink="http://www.w3.org/1999/xlink" width="128" zoomAndPan="magnify" viewBox="0 0 96 79.499998" height="106" preserveAspectRatio="xMidYMid meet" version="1.0"><defs><clipPath id="83afd81e01"><path d="M 11.574219 1.023438 L 89.453125 1.023438 L 89.453125 78.75 L 11.574219 78.75 Z M 11.574219 1.023438 " clip-rule="nonzero"/></clipPath><clipPath id="154d3d4dfb"><path d="M 31.382812 12.652344 L 71.257812 12.652344 L 71.257812 67.167969 L 31.382812 67.167969 Z M 31.382812 12.652344 " clip-rule="nonzero"/></clipPath></defs><g clip-path="url(#83afd81e01)"><path fill="#000000" d="M 11.585938 33.175781 C 11.585938 18.019531 11.585938 10.441406 16.292969 5.734375 C 21.003906 1.023438 28.582031 1.023438 43.738281 1.023438 L 57.132812 1.023438 C 72.289062 1.023438 79.867188 1.023438 84.574219 5.734375 C 89.285156 10.441406 89.285156 18.019531 89.285156 33.175781 L 89.285156 46.574219 C 89.285156 61.726562 89.285156 69.308594 84.574219 74.015625 C 79.867188 78.722656 72.289062 78.722656 57.132812 78.722656 L 43.738281 78.722656 C 28.582031 78.722656 21.003906 78.722656 16.292969 74.015625 C 11.585938 69.308594 11.585938 61.726562 11.585938 46.574219 Z M 11.585938 33.175781 " fill-opacity="1" fill-rule="nonzero"/></g><path fill="#000000" d="M 73.707031 35.378906 L 60.871094 22.539062 L 48.03125 35.378906 L 60.871094 48.21875 Z M 73.707031 35.378906 " fill-opacity="1" fill-rule="nonzero"/><path fill="#000000" d="M 43.707031 22.542969 L 33.726562 22.542969 L 33.726562 60.648438 L 43.707031 60.648438 Z M 43.707031 22.542969 " fill-opacity="1" fill-rule="nonzero"/><g clip-path="url(#154d3d4dfb)"><path fill="#ffffff" d="M 71.246094 25.839844 L 40.960938 25.839844 L 40.960938 13.210938 C 40.960938 12.902344 41.210938 12.652344 41.519531 12.652344 L 56.15625 12.652344 C 63.839844 12.652344 70.242188 18.421875 71.246094 25.839844 Z M 54.625 52.125 L 54.953125 47.011719 C 54.953125 46.707031 54.703125 46.457031 54.394531 46.460938 L 41.765625 46.5 L 41.050781 67.085938 C 48.492188 66.238281 54.648438 59.808594 54.625 52.125 Z M 31.382812 42.742188 L 58.617188 42.742188 C 65.59375 42.742188 71.25 37.085938 71.25 30.113281 C 71.25 29.804688 71 29.554688 70.691406 29.554688 L 46.476562 29.554688 C 38.789062 29.554688 32.390625 35.324219 31.382812 42.742188 Z M 31.382812 42.742188 " fill-opacity="1" fill-rule="nonzero"/></g></svg>