<svg xmlns="http://www.w3.org/2000/svg" xmlns:xlink="http://www.w3.org/1999/xlink" width="58" zoomAndPan="magnify" viewBox="0 0 43.5 43.499999" height="58" preserveAspectRatio="xMidYMid meet" version="1.0"><defs><clipPath id="a90f42d86e"><path d="M 1.929688 1.929688 L 41.226562 1.929688 L 41.226562 41.226562 L 1.929688 41.226562 Z M 1.929688 1.929688 " clip-rule="nonzero"/></clipPath><clipPath id="8e1ec27085"><path d="M 4 1.929688 L 39 1.929688 L 39 21 L 4 21 Z M 4 1.929688 " clip-rule="nonzero"/></clipPath></defs><g clip-path="url(#a90f42d86e)"><path fill="#ef223b" d="M 41.226562 21.578125 C 41.226562 22.21875 41.195312 22.863281 41.132812 23.503906 C 41.070312 24.144531 40.972656 24.777344 40.847656 25.410156 C 40.722656 26.042969 40.566406 26.664062 40.378906 27.28125 C 40.191406 27.898438 39.976562 28.5 39.730469 29.097656 C 39.484375 29.691406 39.210938 30.273438 38.90625 30.839844 C 38.601562 31.40625 38.273438 31.957031 37.914062 32.492188 C 37.558594 33.027344 37.175781 33.542969 36.765625 34.042969 C 36.359375 34.539062 35.925781 35.015625 35.472656 35.472656 C 35.015625 35.925781 34.539062 36.359375 34.042969 36.765625 C 33.542969 37.175781 33.027344 37.558594 32.492188 37.914062 C 31.957031 38.273438 31.40625 38.601562 30.839844 38.90625 C 30.273438 39.210938 29.691406 39.484375 29.097656 39.730469 C 28.5 39.976562 27.898438 40.191406 27.28125 40.378906 C 26.664062 40.566406 26.042969 40.722656 25.410156 40.847656 C 24.777344 40.972656 24.144531 41.070312 23.503906 41.132812 C 22.863281 41.195312 22.21875 41.226562 21.578125 41.226562 C 20.933594 41.226562 20.292969 41.195312 19.652344 41.132812 C 19.011719 41.070312 18.375 40.972656 17.742188 40.847656 C 17.113281 40.722656 16.488281 40.566406 15.875 40.378906 C 15.257812 40.191406 14.652344 39.976562 14.058594 39.730469 C 13.464844 39.484375 12.882812 39.210938 12.3125 38.90625 C 11.746094 38.601562 11.195312 38.273438 10.660156 37.914062 C 10.125 37.558594 9.609375 37.175781 9.113281 36.765625 C 8.613281 36.359375 8.136719 35.925781 7.683594 35.472656 C 7.226562 35.015625 6.796875 34.539062 6.386719 34.042969 C 5.980469 33.542969 5.597656 33.027344 5.238281 32.492188 C 4.882812 31.957031 4.550781 31.40625 4.246094 30.839844 C 3.945312 30.273438 3.667969 29.691406 3.421875 29.097656 C 3.175781 28.5 2.960938 27.898438 2.773438 27.28125 C 2.585938 26.664062 2.429688 26.042969 2.304688 25.410156 C 2.179688 24.777344 2.085938 24.144531 2.023438 23.503906 C 1.960938 22.863281 1.929688 22.21875 1.929688 21.578125 C 1.929688 20.933594 1.960938 20.292969 2.023438 19.652344 C 2.085938 19.011719 2.179688 18.375 2.304688 17.742188 C 2.429688 17.113281 2.585938 16.488281 2.773438 15.875 C 2.960938 15.257812 3.175781 14.652344 3.421875 14.058594 C 3.667969 13.464844 3.945312 12.882812 4.246094 12.3125 C 4.550781 11.746094 4.882812 11.195312 5.238281 10.660156 C 5.597656 10.125 5.980469 9.609375 6.386719 9.113281 C 6.796875 8.613281 7.226562 8.136719 7.683594 7.683594 C 8.136719 7.226562 8.613281 6.796875 9.113281 6.386719 C 9.609375 5.980469 10.125 5.597656 10.660156 5.238281 C 11.195312 4.882812 11.746094 4.550781 12.3125 4.246094 C 12.882812 3.945312 13.464844 3.667969 14.058594 3.421875 C 14.652344 3.175781 15.257812 2.960938 15.875 2.773438 C 16.488281 2.585938 17.113281 2.429688 17.742188 2.304688 C 18.375 2.179688 19.011719 2.085938 19.652344 2.023438 C 20.292969 1.960938 20.933594 1.929688 21.578125 1.929688 C 22.21875 1.929688 22.863281 1.960938 23.503906 2.023438 C 24.144531 2.085938 24.777344 2.179688 25.410156 2.304688 C 26.042969 2.429688 26.664062 2.585938 27.28125 2.773438 C 27.898438 2.960938 28.5 3.175781 29.097656 3.421875 C 29.691406 3.667969 30.273438 3.945312 30.839844 4.246094 C 31.40625 4.550781 31.957031 4.882812 32.492188 5.238281 C 33.027344 5.597656 33.542969 5.980469 34.042969 6.386719 C 34.539062 6.796875 35.015625 7.226562 35.472656 7.683594 C 35.925781 8.136719 36.359375 8.613281 36.765625 9.113281 C 37.175781 9.609375 37.558594 10.125 37.914062 10.660156 C 38.273438 11.195312 38.601562 11.746094 38.90625 12.3125 C 39.210938 12.882812 39.484375 13.464844 39.730469 14.058594 C 39.976562 14.652344 40.191406 15.257812 40.378906 15.875 C 40.566406 16.488281 40.722656 17.113281 40.847656 17.742188 C 40.972656 18.375 41.070312 19.011719 41.132812 19.652344 C 41.195312 20.292969 41.226562 20.933594 41.226562 21.578125 Z M 41.226562 21.578125 " fill-opacity="1" fill-rule="nonzero"/></g><g clip-path="url(#8e1ec27085)"><path fill="#ff3445" d="M 38.242188 11.164062 C 34.765625 16.707031 28.601562 20.390625 21.578125 20.390625 C 14.550781 20.390625 8.386719 16.707031 4.910156 11.164062 C 8.382812 5.617188 14.550781 1.929688 21.578125 1.929688 C 28.601562 1.929688 34.773438 5.617188 38.242188 11.164062 Z M 38.242188 11.164062 " fill-opacity="1" fill-rule="nonzero"/></g><path fill="#000000" d="M 34.585938 34.367188 C 34.585938 34.800781 28.761719 35.15625 21.578125 35.15625 C 14.394531 35.15625 8.570312 34.800781 8.570312 34.367188 C 8.570312 33.929688 14.394531 33.582031 21.578125 33.582031 C 28.761719 33.582031 34.585938 33.929688 34.585938 34.367188 Z M 34.585938 34.367188 " fill-opacity="0.1" fill-rule="nonzero"/><path fill="#ffffff" d="M 33.136719 15.664062 L 33.136719 30.992188 C 33.136719 31.628906 32.613281 32.152344 31.976562 32.152344 L 11.179688 32.152344 C 10.535156 32.152344 10.019531 31.628906 10.019531 30.992188 L 10.019531 15.664062 Z M 33.136719 15.664062 " fill-opacity="1" fill-rule="nonzero"/><path fill="#313b5a" d="M 33.136719 15.660156 L 33.136719 13.007812 C 33.136719 12.367188 32.617188 11.847656 31.976562 11.847656 L 11.175781 11.847656 C 10.535156 11.847656 10.015625 12.367188 10.015625 13.007812 L 10.015625 15.660156 Z M 33.136719 15.660156 " fill-opacity="1" fill-rule="nonzero"/><path fill="#ef223b" d="M 12.964844 13.757812 C 12.964844 14.097656 12.6875 14.382812 12.339844 14.382812 C 11.992188 14.382812 11.714844 14.097656 11.714844 13.757812 C 11.714844 13.410156 11.992188 13.132812 12.339844 13.132812 C 12.6875 13.132812 12.964844 13.410156 12.964844 13.757812 Z M 12.964844 13.757812 " fill-opacity="1" fill-rule="nonzero"/><path fill="#fed110" d="M 15.085938 13.757812 C 15.085938 14.097656 14.808594 14.382812 14.460938 14.382812 C 14.113281 14.382812 13.835938 14.097656 13.835938 13.757812 C 13.835938 13.410156 14.113281 13.132812 14.460938 13.132812 C 14.808594 13.132812 15.085938 13.410156 15.085938 13.757812 Z M 15.085938 13.757812 " fill-opacity="1" fill-rule="nonzero"/><path fill="#0f9be8" d="M 17.207031 13.757812 C 17.207031 14.097656 16.929688 14.382812 16.582031 14.382812 C 16.234375 14.382812 15.957031 14.097656 15.957031 13.757812 C 15.957031 13.410156 16.234375 13.132812 16.582031 13.132812 C 16.929688 13.132812 17.207031 13.410156 17.207031 13.757812 Z M 17.207031 13.757812 " fill-opacity="1" fill-rule="nonzero"/><path fill="#20273a" d="M 31.5625 13.757812 C 31.5625 13.988281 31.375 14.179688 31.140625 14.179688 L 21.789062 14.179688 C 21.554688 14.179688 21.367188 13.988281 21.367188 13.757812 C 21.367188 13.519531 21.554688 13.332031 21.789062 13.332031 L 31.140625 13.332031 C 31.375 13.332031 31.5625 13.519531 31.5625 13.757812 Z M 31.5625 13.757812 " fill-opacity="1" fill-rule="nonzero"/><path fill="#fed110" d="M 26.792969 23.910156 C 26.792969 26.792969 24.460938 29.125 21.574219 29.125 C 18.691406 29.125 16.359375 26.792969 16.359375 23.910156 C 16.359375 21.03125 18.691406 18.691406 21.574219 18.691406 C 24.460938 18.691406 26.792969 21.03125 26.792969 23.910156 Z M 26.792969 23.910156 " fill-opacity="1" fill-rule="nonzero"/><path fill="#ff9f00" d="M 25.332031 23.910156 C 25.332031 25.984375 23.652344 27.660156 21.574219 27.660156 C 19.5 27.660156 17.824219 25.984375 17.824219 23.910156 C 17.824219 21.835938 19.5 20.152344 21.574219 20.152344 C 23.652344 20.152344 25.332031 21.835938 25.332031 23.910156 Z M 25.332031 23.910156 " fill-opacity="1" fill-rule="nonzero"/><path fill="#fed110" d="M 22.691406 24.65625 C 22.691406 25.128906 22.355469 25.539062 21.863281 25.660156 L 21.863281 25.910156 C 21.863281 26.066406 21.734375 26.191406 21.578125 26.191406 C 21.417969 26.191406 21.289062 26.066406 21.289062 25.910156 L 21.289062 25.660156 C 20.804688 25.539062 20.460938 25.128906 20.460938 24.65625 C 20.460938 24.5 20.589844 24.371094 20.742188 24.371094 C 20.90625 24.371094 21.035156 24.5 21.035156 24.65625 C 21.035156 24.917969 21.277344 25.128906 21.578125 25.128906 C 21.875 25.128906 22.125 24.917969 22.125 24.65625 C 22.125 24.398438 21.875 24.191406 21.578125 24.191406 C 20.960938 24.191406 20.460938 23.726562 20.460938 23.160156 C 20.460938 22.6875 20.796875 22.277344 21.289062 22.152344 L 21.289062 21.90625 C 21.289062 21.75 21.417969 21.621094 21.578125 21.621094 C 21.734375 21.621094 21.863281 21.75 21.863281 21.90625 L 21.863281 22.152344 C 22.355469 22.277344 22.691406 22.6875 22.691406 23.160156 C 22.691406 23.3125 22.5625 23.441406 22.410156 23.441406 C 22.253906 23.441406 22.125 23.3125 22.125 23.160156 C 22.125 22.894531 21.875 22.6875 21.578125 22.6875 C 21.277344 22.6875 21.035156 22.894531 21.035156 23.160156 C 21.035156 23.414062 21.277344 23.625 21.578125 23.625 C 22.195312 23.625 22.691406 24.089844 22.691406 24.65625 Z M 22.691406 24.65625 " fill-opacity="1" fill-rule="nonzero"/><path fill="#65b2ff" d="M 17.425781 17.328125 C 17.425781 17.476562 17.304688 17.601562 17.152344 17.601562 L 11.988281 17.601562 C 11.835938 17.601562 11.710938 17.476562 11.710938 17.328125 C 11.710938 17.175781 11.835938 17.050781 11.988281 17.050781 L 17.152344 17.050781 C 17.304688 17.050781 17.425781 17.175781 17.425781 17.328125 Z M 17.425781 17.328125 " fill-opacity="1" fill-rule="nonzero"/><path fill="#65b2ff" d="M 14.441406 18.816406 C 14.441406 18.96875 14.316406 19.09375 14.164062 19.09375 L 11.988281 19.09375 C 11.835938 19.09375 11.710938 18.96875 11.710938 18.816406 C 11.710938 18.664062 11.835938 18.542969 11.988281 18.542969 L 14.164062 18.542969 C 14.316406 18.542969 14.441406 18.664062 14.441406 18.816406 Z M 14.441406 18.816406 " fill-opacity="1" fill-rule="nonzero"/><path fill="#ff3445" d="M 26.585938 28.941406 L 25.546875 25.816406 L 28.675781 26.851562 L 28.074219 27.449219 L 29.238281 28.613281 L 28.347656 29.503906 L 27.183594 28.34375 Z M 26.585938 28.941406 " fill-opacity="1" fill-rule="nonzero"/></svg>